<svg width="33" height="37" viewBox="0 0 33 37" fill="none" xmlns="http://www.w3.org/2000/svg">
<path d="M15.5004 0.0954475C15.2574 0.146996 14.9113 0.257446 14.7272 0.338448C14.359 0.493084 2.82026 7.11297 2.07654 7.5916C1.11927 8.20278 0.338726 9.32205 0.110454 10.4119C0.0220908 10.839 0 12.1202 0 18.2909C0 25.3379 0.00736362 25.684 0.139909 26.2142C0.390271 27.1788 0.971996 28.0992 1.6789 28.6589C2.19435 29.0639 14.2044 35.9636 14.8745 36.2434C15.4047 36.4643 15.4636 36.4717 16.4945 36.4717C17.4591 36.4643 17.6064 36.4496 18.0408 36.2802C18.6152 36.0593 30.721 29.1154 31.2806 28.6883C32.017 28.1213 32.6576 27.1125 32.8785 26.1847C33.0405 25.4852 33.0405 10.9789 32.8785 10.3309C32.665 9.48405 32.282 8.83605 31.6267 8.19542C31.045 7.62105 30.8977 7.53269 24.8301 4.04971C21.4134 2.09099 18.4753 0.426811 18.2986 0.34581C17.5254 0.00708389 16.3767 -0.0960045 15.5004 0.0954475ZM17.4517 4.80816C17.7168 4.87443 18.0629 4.97016 18.2249 5.03643C18.7256 5.22788 26.8403 9.92586 27.238 10.2499C27.7313 10.6622 28.1952 11.266 28.4898 11.9067C28.9316 12.8713 28.9463 13.1143 28.9169 18.5928C28.8948 24.0566 28.9169 23.7989 28.3793 24.8519C28.0627 25.4778 27.4736 26.1553 26.9361 26.5161C25.8831 27.2009 18.4606 31.3981 18.004 31.5601C17.0467 31.8989 15.6698 31.862 14.764 31.4791C14.278 31.273 6.3327 26.7075 5.86879 26.3688C5.16189 25.8533 4.48444 24.8077 4.24144 23.8652C4.07207 23.2098 4.06471 13.3499 4.23407 12.6872C4.44762 11.8478 4.83053 11.1924 5.47852 10.5518C6.05288 9.98477 6.20752 9.88905 10.3459 7.52533C12.6949 6.18515 14.7198 5.05116 14.8377 4.99961C15.5961 4.71243 16.6786 4.63143 17.4517 4.80816Z" fill="#2F69BF"/>
<path d="M15.3531 9.36618C14.6168 9.53554 14.1897 9.74172 12.1573 10.9052C10.3164 11.9582 10.1544 12.0613 9.52852 12.6872C8.94679 13.2615 8.80689 13.453 8.51971 14.0494C7.9748 15.1908 7.93798 15.4559 7.96743 18.5118L7.98953 21.1553L8.19571 21.7444C8.57861 22.8195 9.21925 23.7326 10.0145 24.3143C10.7141 24.8298 14.1308 26.759 14.7051 26.9652C15.8686 27.3776 17.0689 27.3776 18.2618 26.9799C18.5416 26.8842 19.6903 26.2804 20.8169 25.6398C22.6726 24.572 22.9082 24.4174 23.4457 23.8798C24.1232 23.2098 24.5061 22.5986 24.8006 21.7444L24.9995 21.1553L25.0215 18.5044C25.0363 16.7077 25.0215 15.7136 24.9626 15.4117C24.7123 14.1304 23.8507 12.7903 22.8125 12.076C22.6357 11.9582 21.649 11.3764 20.6181 10.78C18.3501 9.47663 17.9672 9.32936 16.6786 9.29254C16.0969 9.27781 15.6477 9.29991 15.3531 9.36618Z" fill="#2F69BF"/>
</svg>
