<svg width="486" height="163" viewBox="0 0 486 163" fill="none" xmlns="http://www.w3.org/2000/svg">
<path d="M69.2747 0.426636C68.1887 0.656998 66.6419 1.15065 65.8192 1.51265C64.1737 2.20375 12.6044 31.7895 9.2805 33.9286C5.00226 36.6601 1.51384 41.6624 0.493644 46.533C0.0987288 48.4417 0 54.168 0 81.7462C0 113.241 0.0329096 114.787 0.625282 117.157C1.74421 121.468 4.34407 125.582 7.50339 128.083C9.80706 129.893 63.4826 160.729 66.4774 161.98C68.8469 162.967 69.1101 163 73.7175 163C78.0286 162.967 78.6868 162.901 80.6285 162.144C83.1954 161.157 137.299 130.123 139.8 128.215C143.091 125.681 145.954 121.172 146.941 117.025C147.665 113.899 147.665 49.067 146.941 46.171C145.987 42.3864 144.276 39.4903 141.347 36.6272C138.747 34.0602 138.089 33.6653 110.971 18.0991C95.7011 9.34514 82.5702 1.90756 81.7803 1.54556C78.3248 0.031723 73.1909 -0.429016 69.2747 0.426636ZM77.9957 21.4888C79.1805 21.785 80.7272 22.2128 81.4512 22.509C83.6891 23.3646 119.955 44.3609 121.733 45.809C123.938 47.6519 126.011 50.3505 127.327 53.2136C129.302 57.5248 129.368 58.6108 129.236 83.0955C129.137 107.514 129.236 106.363 126.834 111.069C125.418 113.866 122.786 116.894 120.383 118.506C115.677 121.567 82.5043 140.325 80.4639 141.049C76.1857 142.563 70.0316 142.399 65.9837 140.687C63.8117 139.766 28.3022 119.362 26.2289 117.848C23.0696 115.544 20.0419 110.871 18.9559 106.659C18.199 103.73 18.1661 59.6639 18.923 56.702C19.8774 52.9503 21.5887 50.0214 24.4847 47.1583C27.0517 44.6242 27.7428 44.1964 46.238 33.6324C56.7361 27.6429 65.7863 22.5748 66.3128 22.3444C69.7025 21.0609 74.5402 20.6989 77.9957 21.4888Z" fill="#2F69BF"/>
<path d="M68.6165 41.8598C65.3255 42.6168 63.4167 43.5382 54.3337 48.7379C46.1063 53.444 45.3823 53.9047 42.585 56.7021C39.9851 59.269 39.3598 60.1247 38.0764 62.7903C35.6411 67.8913 35.4765 69.0761 35.6081 82.7335L35.7069 94.5481L36.6283 97.1809C38.3396 101.986 41.2028 106.066 44.757 108.666C47.8834 110.97 63.1535 119.592 65.7204 120.514C70.9201 122.357 76.2844 122.357 81.6157 120.58C82.8663 120.152 88.0002 117.453 93.0354 114.59C101.329 109.818 102.382 109.127 104.784 106.725C107.812 103.73 109.523 100.998 110.839 97.1809L111.728 94.5481L111.827 82.7006C111.893 74.6707 111.827 70.2279 111.563 68.8786C110.445 63.1523 106.594 57.1628 101.954 53.9706C101.164 53.444 96.7542 50.8442 92.1468 48.1785C82.0107 42.3535 80.2994 41.6953 74.5402 41.5307C71.9403 41.4649 69.9328 41.5637 68.6165 41.8598Z" fill="#2F69BF"/>
<path d="M329.754 56.3729C329.754 64.3699 329.622 68.714 329.425 68.714C329.26 68.714 329.096 68.5824 329.096 68.3849C329.096 68.2204 328.207 67.1014 327.088 65.9496C324.488 63.1523 321.691 61.7043 317.742 61.1119C307.77 59.631 299.74 65.5218 296.779 76.4478C296.153 78.7185 296.055 79.9691 296.055 85.1688C296.055 90.4014 296.153 91.6191 296.779 93.8569C298.852 101.36 303.36 106.659 309.284 108.568C313.628 109.95 319.651 109.423 323.567 107.317C325.081 106.494 327.977 103.697 329.162 101.953C329.688 101.163 329.721 101.229 329.721 104.651L329.754 108.206H333.374H336.994V76.1187V44.0318H333.374H329.754V56.3729ZM321.428 68.0558C323.633 68.9773 326.562 72.0379 327.648 74.5061C329.063 77.7312 329.524 80.3311 329.524 85.1688C329.524 92.4089 328.043 96.7859 324.456 100.11C321.987 102.381 320.046 103.105 316.261 103.105C313.957 103.072 313.135 102.94 311.588 102.216C308.067 100.57 305.5 97.0821 304.183 92.0798C303.393 89.085 303.393 81.2196 304.183 78.2578C305.796 72.3011 308.527 69.0102 313.069 67.5293C315.076 66.8711 319.289 67.1343 321.428 68.0558Z" fill="#2F69BF"/>
<path d="M383.364 56.4388C383.364 68.2533 383.331 68.8457 382.804 68.0559C381.685 66.4104 379.283 64.0409 377.868 63.2182C373.096 60.4208 365.856 60.1576 360.755 62.6587C357.135 64.4358 353.35 68.9115 351.639 73.453C349.697 78.5869 349.236 86.6169 350.487 92.7381C352.791 103.96 361.15 110.575 371.253 109.193C376.091 108.535 379.217 106.823 381.85 103.434L383.232 101.624L383.331 104.915L383.43 108.206H387.181H390.966V76.1187V44.0319H387.181H383.397L383.364 56.4388ZM375.564 68.1875C379.085 69.8659 381.85 73.8809 382.903 78.7844C383.528 81.7462 383.528 88.5914 382.903 91.5533C381.85 96.5885 379.316 100.176 375.531 102.051C373.59 103.006 373.096 103.105 370.397 103.105C367.699 103.105 367.205 103.006 365.231 102.019C361.709 100.274 359.471 97.2467 358.155 92.409C357.694 90.7635 357.563 89.0193 357.563 85.0043C357.563 80.4299 357.661 79.4097 358.32 77.2705C360.524 70.195 364.704 66.904 371.088 67.2002C373.063 67.2989 374.182 67.5293 375.564 68.1875Z" fill="#2F69BF"/>
<path d="M183.965 77.4351V108.206H187.914H191.863V82.3057C191.863 66.904 191.994 56.5375 192.159 56.7021C192.324 56.8995 198.543 68.5166 205.981 82.5361L219.474 108.041L225.102 108.14L230.696 108.206V77.4351V46.6646H226.747H222.798V72.3999C222.765 93.1988 222.699 98.0694 222.37 97.6087C222.14 97.3125 215.953 85.7283 208.647 71.8734L195.318 46.6975L189.658 46.6646H183.965V77.4351Z" fill="#2F69BF"/>
<path d="M260.479 61.3094C250.639 63.1194 244.749 70.7544 243.992 82.6348C243.235 94.3177 247.414 103.499 255.181 107.185C258.505 108.798 260.874 109.292 265.087 109.292C269.299 109.292 271.669 108.798 275.025 107.185C282.726 103.499 286.84 94.6139 286.182 82.9968C285.523 70.8203 279.6 63.1194 269.529 61.2765C266.502 60.7499 263.507 60.7499 260.479 61.3094ZM270.418 68.3849C273.873 70.0962 276.342 73.453 277.658 78.3236C278.448 81.2197 278.448 89.118 277.658 92.014C275.519 99.9452 269.99 104.026 262.98 102.907C260.315 102.479 258.077 101.295 256.234 99.32C254.49 97.477 253.733 96.029 252.713 92.738C252.022 90.5989 251.923 89.6116 251.923 85.1688C251.923 80.726 252.022 79.7388 252.713 77.5996C253.733 74.2758 254.49 72.8607 256.3 70.9519C259.92 67.0686 265.613 66.0484 270.418 68.3849Z" fill="#2F69BF"/>
<path d="M421.967 61.1777C409.724 62.9549 402.023 74.7365 403.768 89.0851C405.051 99.4845 411.304 106.659 420.914 108.732C426.508 109.983 434.834 109.259 441.647 106.955L444.444 106.001L444.543 102.512C444.576 100.571 444.543 98.9909 444.444 98.9909C444.345 98.9909 443.555 99.3529 442.7 99.7807C438.52 101.854 433.584 102.973 428.483 103.006C419.202 103.072 414.134 99.4516 411.995 91.1584C411.666 89.8091 411.37 88.2623 411.37 87.7358V86.8143H428.845H446.353L446.155 82.1082C446.057 79.3767 445.76 76.6123 445.464 75.4605C442.634 64.9623 433.65 59.5323 421.967 61.1777ZM431.083 68.0229C435.427 69.6684 438.487 74.1112 438.751 79.1464L438.849 81.0551L425.291 81.1539L411.699 81.2197V80.2982C411.699 78.9818 412.555 75.8225 413.377 74.2429C415.089 70.8861 418.972 68.1217 422.921 67.4306C425.356 67.0027 429.108 67.266 431.083 68.0229Z" fill="#2F69BF"/>
<path d="M477.551 61.3094C476.235 61.5727 474.227 62.198 473.108 62.7574C471.002 63.7776 467.974 66.5091 467.053 68.2204C466.493 69.2077 466.493 69.1748 466.395 65.6535L466.296 62.1321H462.544H458.76V85.1689V108.206H462.544H466.329V94.4494C466.329 83.7537 466.46 80.2324 466.822 78.4882C468.172 72.1037 471.561 68.6482 477.452 67.661C479.493 67.3319 480.217 67.3319 482.224 67.7597C483.541 68.0559 484.857 68.385 485.186 68.5166C485.713 68.7799 485.745 68.4837 485.745 64.9953V61.2436L484.034 61.0132C481.665 60.7499 480.381 60.8158 477.551 61.3094Z" fill="#2F69BF"/>
</svg>
